<svg xmlns="http://www.w3.org/2000/svg" width="156.5" height="140" viewBox="-6.008 -6.462 156.5 140" xml:space="preserve"><path vector-effect="non-scaling-stroke" fill="#1BD197" stroke="#1BD197" stroke-width="2" d="M21.287 3.805c.194-.19.657-.265.906-.265l52.372.012c.177 0 .347.068.472.188l3.053 2.91a.8.8 0 0 0 .554.225l14.385.045c.291 0 .572-.107.788-.3 1.206-1.085 2.638-1.627 4.298-1.627 42.374-.085-9.75-.13 32.625-.135 3.385 0 6.755-.052 10.11-.158 1.235-.035 2.02-.42 2.355-1.155a.398.398 0 0 0-.36-.562c-50.535-.006-6.57-.038-57.104-.098-.66-.005-1.45-.545-2.37-1.62a.877.877 0 0 0-.624-.3 215.112 215.112 0 0 0-17.774-.06c-1.643.06-2.506 1.343-4.44 1.35-13.29.085-26.253.073-39.469-.007-.258.04-.517.234-.724.45L1.073 20.92l-.246.932L.75 125.826c.017.563.018.497.288.497 0 0 .443-1.083.91-1.986-.017-.257-.203-23.302-.103-38.832.014-1.935 1.094-3.54 1.177-5.302.245-5.356.305-12.946.18-22.77-.023-1.853-1.298-2.896-1.305-4.973-.03-6.51-.058-29.684-.056-29.806.01-.577.328-1.009.328-1.009"/></svg>