<svg xmlns="http://www.w3.org/2000/svg" width="121.004" height="119.797" xml:space="preserve"><g fill="#1BD197" stroke="#1BD197" stroke-width="2"><path vector-effect="non-scaling-stroke" d="M1.845 4.024a.45.45 0 0 1 .45-.45l52.77-.022c.178 0 .347.067.473.188l3.052 2.91a.8.8 0 0 0 .555.225l14.385.045c.29 0 .57-.107.787-.3 1.205-1.084 3.135-1.561 4.795-1.561 1.805-.417 11.988-.394 15.344-.5 1.235-.034 2.02-.42 2.355-1.154a.398.398 0 0 0-.36-.563c-50.535-.005 20.324.103-30.211.043-.66-.005-1.45-.545-2.37-1.62a.872.872 0 0 0-.622-.3 214.893 214.893 0 0 0-17.775-.06c-1.643.06-2.505 1.342-4.44 1.35-13.29.085-26.543.087-39.758.007a.435.435 0 0 0-.435.436L.75 116.825c0 .265.219.48.488.48l16.8-.014a.492.492 0 0 0 .337-.136c.445-.42.363-.768-.247-1.042a1.354 1.354 0 0 0-.563-.105c-5.02.06-10.082.055-15.187-.015-.266-.005-.4-.14-.405-.405a2538.206 2538.206 0 0 1-.128-46.582c.015-1.936 1.095-3.54 1.177-5.303.246-5.355.305-12.945.18-22.77-.022-1.852-1.297-2.895-1.305-4.972a5253.99 5253.99 0 0 1-.052-31.937M118.71 116.262c-17.365.155-34.73.138-52.095-.052-1.68-.022-2.835-1.92-3.96-2.97a1.11 1.11 0 0 0-.78-.307l-14.205-.068a.886.886 0 0 0-.51.158c-1.74 1.194-3.408 1.662-4.607 1.966-1.18.446-9.008.49-17.47.503-1.261.004-2.212.653-2.947 1.523-.204.37.242.285 30.516.217 2.11.005 3.781.198 5.21 1.243.201.147.441.232.69.247 4.83.285 9.675.383 14.536.293 1.215-.02 2.622-.272 4.222-.758 1.63-.495 3.063-.75 4.298-.764 12.815-.16 25.61-.196 38.385-.106a.253.253 0 0 0 .262-.255l-.021-114.15c0-.194-.096-.294-.286-.299-5.64-.155-11.248-.06-16.822.284-.371.026-.506.195-.405.51a.32.32 0 0 0 .307.225l15.9.12c.19 0 .345.155.345.345.02 10.715-.04 21.343-.18 31.883-.023 1.327-1.08 3.188-1.102 4.912a842.591 842.591 0 0 0-.076 21.946c.024 2.017 1.201 3.307 1.239 5.362.24 15.84.25 31.678.029 47.513 0 .314-.158.474-.473.48"/><path vector-effect="non-scaling-stroke" d="M107.122 9.405a.794.794 0 0 0-.807-.783l-.99.016a.794.794 0 0 0-.782.808l.014.974c.008.439.37.79.809.782l.99-.015a.794.794 0 0 0 .781-.808l-.015-.974M112.061 9.501a.826.826 0 0 0-.806-.844l-1.094-.024a.824.824 0 0 0-.844.806l-.023.99a.825.825 0 0 0 .806.843l1.095.025c.456.01.833-.35.844-.807l.022-.989M107.028 14.254a.831.831 0 0 0-.868-.795l-.794.034a.833.833 0 0 0-.796.868l.038.855c.02.46.409.816.868.795l.794-.034c.46-.02.815-.41.795-.868l-.037-.855M111.997 14.135a.757.757 0 0 0-.787-.727l-1.124.045a.757.757 0 0 0-.727.788l.044 1.094c.018.418.37.744.787.727l1.125-.046a.758.758 0 0 0 .727-.787l-.045-1.094"/></g></svg>