<svg xmlns="http://www.w3.org/2000/svg" width="99.213" height="99.213" xml:space="preserve"><path d="m13.33 79.229 3.817-3.824c.25-.256.247-.506-.01-.75l-1.574-1.53c-.19-.18-.192-.365-.008-.555l1.627-1.665c.22-.226.44-.226.66 0l1.56 1.597c.21.216.42.218.63.008l1.628-1.635a.427.427 0 0 0-.075-.66c-.76-.5-1.167-1.2-1.222-2.101a.899.899 0 0 1 .375-.787l6.165-4.44a.61.61 0 0 0 .262-.637l-.104-.668a.909.909 0 0 1 .277-.832l5.168-5.093c.25-.245.51-.26.779-.045L35.033 57a.397.397 0 0 0 .532-.03l7.013-7.005c.234-.235.234-.47 0-.705C30.463 37.15 18.36 25.05 6.27 12.96.975 7.657 7.59.989 12.983 6.375L49.35 42.742a.337.337 0 0 0 .473 0 57613.363 57613.363 0 0 1 36.645-36.66c1.3-1.3 2.436-2.067 3.405-2.303 3.218-.78 6.473 2.813 5.438 5.926-.285.854-1.11 1.962-2.475 3.322a14312.599 14312.599 0 0 0-36.33 36.353c-.181.175-.181.35 0 .524l10.777 10.748c.185.185.405.26.66.225l1.132-.15a.852.852 0 0 1 .72.24l4.838 4.868c.22.225.29.487.21.787-.354 1.37.198 2.4 1.658 3.09.21.1.399.067.569-.097l1.5-1.5a.442.442 0 0 1 .626-.005l.012.012 1.553 1.605c.21.215.21.43 0 .645l-1.522 1.56c-.23.235-.228.468.008.698l15.338 15.345a1.35 1.35 0 0 1 0 1.905l-4.71 4.68a1.425 1.425 0 0 1-2.01-.007L68.057 74.752c-.186-.185-.396-.215-.63-.09-.721.383-1.253.375-1.868-.232a1235.717 1235.717 0 0 1-8.032-7.987.637.637 0 0 1-.173-.532l.188-1.29a.648.648 0 0 0-.195-.585l-7.485-7.5a.387.387 0 0 0-.546-.002l-.001.002-7.096 7.087a.489.489 0 0 0-.008.683l.862.885c.496.515.516 1.325.045 1.868-1.275 1.47-2.76 2.782-4.103 4.268-.57.63-1.287.875-2.152.734a.63.63 0 0 0-.607.255c-1.25 1.75-2.49 3.498-3.721 5.243-1.103 1.56-2.587 1.732-3.563-.03a.382.382 0 0 0-.608-.083l-1.627 1.71c-.215.226-.212.45.009.676l1.567 1.582c.189.19.189.38 0 .57l-1.688 1.71a.353.353 0 0 1-.5.012l-.011-.012-1.642-1.695a.447.447 0 0 0-.631-.014l-.006.007-3.848 3.915c-.215.215-.195.404.06.569.795.516 1.205 1.235 1.23 2.16a.971.971 0 0 1-.405.817l-8.16 5.835a1.364 1.364 0 0 1-1.755-.142l-6.795-6.803a1.572 1.572 0 0 1-.157-2.033 522.308 522.308 0 0 0 4.994-6.975c1.155-1.65 2.52-2.085 3.69-.18.183.29.396.315.64.074zm38.76-33.712 1.567 1.567a.518.518 0 0 0 .732.003l.003-.003 37.064-37.065c.818-.82 1.063-1.9.548-2.415l-.435-.435c-.515-.515-1.596-.271-2.415.548L52.09 44.782a.518.518 0 0 0-.003.732c0 .002.002.002.003.003zm11.88 16.246L10.082 7.875a1.507 1.507 0 0 0-2.01-.105c-1.042.848-.66 1.883.18 2.723 17.49 17.505 34.985 35.005 52.485 52.5.19.186.41.235.66.15l2.438-.817c.345-.116.39-.304.135-.563zm-16.893-7.446a.399.399 0 0 0 0-.563l-1.665-1.665a.399.399 0 0 0-.563 0l-7.127 7.128a.398.398 0 0 0 0 .562l1.665 1.666a.399.399 0 0 0 .563 0l7.127-7.128zM33.236 59.7a.285.285 0 0 0-.403 0l-1.824 1.824a.285.285 0 0 0 0 .403l6.247 6.247a.285.285 0 0 0 .403 0l1.824-1.824a.285.285 0 0 0 0-.403L33.236 59.7zm35.377 4.529a.24.24 0 0 0-.24-.06l-6.217 1.973a.24.24 0 0 0-.097.398l4.47 4.417a.24.24 0 0 0 .338 0l4.087-4.08a.24.24 0 0 0 .006-.34l-.006-.005-2.341-2.303zm-37.951 2.085a.291.291 0 0 0-.022-.434l-1.027-.825a.294.294 0 0 0-.353-.015l-4.612 3.345a.292.292 0 0 0-.066.408c.009.013.019.023.028.034l1.516 1.538a.293.293 0 0 0 .412.007l4.124-4.058zm3.48 3.638a.37.37 0 0 0-.036-.473l-.855-.877a.368.368 0 0 0-.52-.006l-.006.006-3.854 3.99a.366.366 0 0 0 0 .518l1.425 1.402a.367.367 0 0 0 .555-.045l3.292-4.515zM74.282 72.4a.225.225 0 0 0-.001-.318l-1.896-1.881a.222.222 0 0 0-.317 0l-1.893 1.905a.225.225 0 0 0 0 .318l1.896 1.882c.089.087.23.087.318-.002L74.28 72.4zm-49.964.562a.247.247 0 0 0-.35-.001l-1.874 1.86a.248.248 0 0 0-.001.35l1.882 1.895a.248.248 0 0 0 .35.002l1.873-1.86a.248.248 0 0 0 .002-.351l-1.882-1.895zm54.38 3.942a.3.3 0 0 0-.002-.424l-1.82-1.808a.301.301 0 0 0-.424 0l-1.797 1.81a.301.301 0 0 0 .002.426l1.82 1.807a.3.3 0 0 0 .424-.001l1.797-1.81zm-56.904 2.704a.196.196 0 0 0 0-.276l-1.955-1.948a.195.195 0 0 0-.275 0h-.001l-4.15 4.166a.195.195 0 0 0 0 .275l1.956 1.948a.194.194 0 0 0 .275 0l4.15-4.165zm69.097 9.484a.285.285 0 0 0 0-.403l-9.567-9.566a.284.284 0 0 0-.402 0l-1.825 1.824a.284.284 0 0 0 0 .402l9.567 9.567a.285.285 0 0 0 .403 0l1.824-1.824zM7.548 86.76a.42.42 0 0 0 .029.532l.698.743a.42.42 0 0 0 .594.013l.006-.006 3.877-3.84a.42.42 0 0 0 .009-.593l-1.35-1.372a.42.42 0 0 0-.646.053l-3.217 4.47zm4.335 4.86c.138.135.354.15.51.037l4.53-3.232a.398.398 0 0 0 .052-.6l-1.417-1.448a.4.4 0 0 0-.563-.015l-.008.008-3.885 3.952a.399.399 0 0 0 .008.563l.773.735z"/><path d="M48.58 16.32h2.685c.112 0 .203.09.203.202v18.45a.203.203 0 0 1-.203.202H48.58a.202.202 0 0 1-.202-.202v-18.45c0-.112.09-.202.202-.202zM39.378 23.048l2.213-.89a.375.375 0 0 1 .488.208l2.876 7.153a.377.377 0 0 1-.208.488l-2.213.889a.375.375 0 0 1-.488-.208l-2.876-7.153a.375.375 0 0 1 .208-.487zM58.11 22.12l2.397.959a.276.276 0 0 1 .155.36l-2.937 7.34a.275.275 0 0 1-.36.154l-2.396-.958a.275.275 0 0 1-.154-.36l2.936-7.34a.275.275 0 0 1 .36-.154zM24.043 38.465l7.403 2.977a.248.248 0 0 1 .138.32l-.984 2.45a.248.248 0 0 1-.322.138l-7.404-2.977a.246.246 0 0 1-.137-.321l.984-2.45a.247.247 0 0 1 .322-.137zM68.363 41.435l7.34-2.936a.264.264 0 0 1 .342.146l.975 2.438a.264.264 0 0 1-.146.342l-7.34 2.936a.262.262 0 0 1-.341-.146l-.975-2.438a.262.262 0 0 1 .145-.342zM17.162 47.723h18.465c.108 0 .195.087.195.194v2.7a.195.195 0 0 1-.195.195H17.162a.195.195 0 0 1-.194-.195v-2.7c0-.108.087-.194.194-.194zM64.353 47.723h18.21c.174 0 .314.14.314.314v2.46a.315.315 0 0 1-.314.315h-18.21a.316.316 0 0 1-.315-.315v-2.46a.313.313 0 0 1 .315-.314zM22.914 57.124l2.584-1.055a.308.308 0 0 1 .4.169l.936 2.292a.308.308 0 0 1-.17.4l-2.582 1.055a.308.308 0 0 1-.4-.17l-.936-2.291a.307.307 0 0 1 .168-.4zM74.307 56.134l2.47.974a.358.358 0 0 1 .203.467l-.874 2.219a.36.36 0 0 1-.467.203l-2.471-.974a.36.36 0 0 1-.203-.467l.875-2.22a.358.358 0 0 1 .467-.202zM48.595 63.375h2.655c.12 0 .218.098.218.218v18.404c0 .12-.098.218-.218.218h-2.655a.218.218 0 0 1-.217-.218V63.593c0-.12.097-.218.217-.218zM56.758 73.298l2.529-1.027a.203.203 0 0 1 .264.11l1.123 2.768a.203.203 0 0 1-.111.264l-2.53 1.026a.202.202 0 0 1-.263-.111l-1.123-2.766a.203.203 0 0 1 .11-.264zM40.654 72.346l2.12.836a.42.42 0 0 1 .238.545l-.945 2.4a.42.42 0 0 1-.545.236l-2.121-.835a.42.42 0 0 1-.237-.545l.945-2.4a.42.42 0 0 1 .545-.237z"/></svg>