<svg xmlns="http://www.w3.org/2000/svg" width="199.941" height="56.941" xml:space="preserve"><path fill="#1BD197" stroke="#1BD197" stroke-width=".52889542" d="m51.563 4.44 3.18 3.308a.857.857 0 0 0 .607.27c6.72.21 12.477.123 17.272-.263 1.03-.085 2.1-.547 3.21-1.387.19-.142.421-.223.66-.232 9.83-.381 7.663-.473 17.498-.279 1.275.026 2.225-.68 2.85-2.114.105-.245.023-.368-.248-.368-14.902-.023-17.962.533-32.82-.638a1.364 1.364 0 0 1-.704-.255C61.597 1.428 59.592.88 57.052.84A693.014 693.014 0 0 0 39.42.78c-1.265.015-2.352.493-3.262 1.433a.965.965 0 0 1-.69.292l-34.343.06c-.25 0-.375.126-.375.376l.052 50.894c0 .375.188.563.563.563l112.508-.262c.285 0 .375-.135.27-.405l-.075-.188c-.09-.225-.253-.337-.488-.337L2.288 53.063a.188.188 0 0 1-.188-.188l.127-48.344a.443.443 0 0 1 .444-.435l48.352.12c.201-.001.395.08.54.224zm147.532 49.14.098-50.647a.384.384 0 0 0-.383-.383l-93.128-.068c-.314 0-.48.158-.494.473l-.024.487a.694.694 0 0 0 .69.728l90.848-.127c.451 0 .818.366.818.817l.202 47.37c0 .485-.39.877-.87.877l-19.74.008a2.724 2.724 0 0 1-1.95-.825l-2.723-2.79a2.315 2.315 0 0 0-1.634-.697c-5.736-.05-11.403-.078-17.003-.082-.675 0-1.417.546-1.988 1.162-.76.81-1.91 1.22-3.45 1.23-9.014.055-12.035.092-21.06.112-1.642.007-2.775.72-3.562 2.04-.17.28-.093.42.233.42 14.795.065 23.527.12 38.197.165 1.732 0 2.513.802 3.623 1.935.18.185.397.28.652.285 7.885.21 14.922.148 21.113-.187 1.125-.06 2.215-.498 3.27-1.313.195-.15.417-.225.667-.225l6.803.03c.53 0 .795-.265.795-.795zM5.992 17.535a.27.27 0 0 0 .465.188l8.805-8.805a.27.27 0 0 0-.187-.465l-8.887-.075a.27.27 0 0 0-.27.27l.074 8.887z"/></svg>