<?xml version="1.0" encoding="utf-8"?>
<!-- Generator: Adobe Illustrator 16.0.0, SVG Export Plug-In . SVG Version: 6.00 Build 0)  -->
<!DOCTYPE svg PUBLIC "-//W3C//DTD SVG 1.1//EN" "http://www.w3.org/Graphics/SVG/1.1/DTD/svg11.dtd">
<svg version="1.1"
	 id="svg5" xmlns:inkscape="http://www.inkscape.org/namespaces/inkscape" xmlns:sodipodi="http://sodipodi.sourceforge.net/DTD/sodipodi-0.dtd" xmlns:svg="http://www.w3.org/2000/svg" sodipodi:docname="ux scifi.svg" inkscape:version="1.2.1 (9c6d41e410, 2022-07-14)"
	 xmlns="http://www.w3.org/2000/svg" xmlns:xlink="http://www.w3.org/1999/xlink" x="0px" y="0px" width="9.568px"
	 height="17.777px" viewBox="0 0 9.568 17.777" enable-background="new 0 0 9.568 17.777" xml:space="preserve">
<sodipodi:namedview  inkscape:cy="555.78593" inkscape:cx="675.99408" inkscape:zoom="0.70710678" showgrid="false" borderopacity="1.0" bordercolor="#666666" pagecolor="#ffffff" id="namedview7" inkscape:window-height="1009" inkscape:current-layer="g7538" inkscape:window-width="1920" inkscape:deskcolor="#d1d1d1" inkscape:pagecheckerboard="0" inkscape:window-maximized="1" inkscape:pageopacity="0.0" inkscape:showpageshadow="2" inkscape:window-y="-8" inkscape:window-x="-8" inkscape:document-units="mm">
	</sodipodi:namedview>
<g id="layer1" transform="translate(-178.75606,-236.85763)" inkscape:label="Capa 1" inkscape:groupmode="layer">
	<g id="g4358" transform="matrix(0.26458333,0,0,0.26458333,55.742424,121.33245)">
		
			<path id="path4312-86-5" vector-effect="non-scaling-stroke" inkscape:export-ydpi="72.3488" inkscape:export-xdpi="72.3488" inkscape:export-filename="..\..\..\conexa\frontend\public\images\next.svg" sodipodi:nodetypes="cccccccccc" fill="#040404" d="
			M500.681,470.375c0.531-0.509,0.554-1.03,0.07-1.561c-14.369-15.757-17.353-17.263-32.912-31.532
			c-1.037-0.941-1.855-0.864-2.449,0.236c-0.26,0.458-0.681,1.79-0.308,2.178l28.764,28.955c0.317,0.561,0.487,1.344-0.033,1.842
			c-29.112,28.155-27.549,29.162-28.112,29.136c-1.166,1.417-0.635,2.846-0.103,4.126c3.16,0.849,9.615-6.836,4.119-1.344"/>
	</g>
</g>
</svg>
