<svg xmlns="http://www.w3.org/2000/svg" width="99.213" height="99.213" xml:space="preserve"><path fill="#1E1E1E" d="M70.603 91.39H28.718a.502.502 0 0 0-.502.473l-.48 6.521a1.51 1.51 0 0 1-1.507 1.402h-6.627c-1.064 0-1.624-.529-1.68-1.59-.789-14.783 3.892-27.496 14.042-38.134a729.746 729.746 0 0 1 9.94-10.21c.195-.195.195-.39 0-.585a582.278 582.278 0 0 1-10.038-10.308C21.871 28.437 17.203 15.703 17.863.753a1.38 1.38 0 0 1 1.379-1.327h7.122A1.36 1.36 0 0 1 27.721.678l.518 6.635c.02.271.167.405.442.405l24.072.008a.485.485 0 0 0 .494-.338c2.467-6.199 10.428-6.305 12.781.045.076.2.221.3.436.3l4.168-.022c.266 0 .405-.132.42-.397l.391-6.47a1.503 1.503 0 0 1 1.5-1.417h7.129a1.256 1.256 0 0 1 1.26 1.192c.641 13.305-2.921 24.904-10.684 34.8-3.396 4.341-8.877 9.356-13.352 13.877-.189.189-.189.38 0 .569 5.277 5.189 11.479 10.878 15.278 16.425 6.401 9.357 9.325 20.064 8.771 32.125a1.433 1.433 0 0 1-1.439 1.371H73.01a1.566 1.566 0 0 1-1.565-1.484l-.383-6.484c-.022-.286-.174-.428-.459-.428zM58.569 61.2c9.746 9.799 15.533 20.758 16.08 34.814.011.266.147.397.412.397h2.609c.27-.007.407-.146.412-.42.109-10.275-2.579-19.44-8.066-27.498-1.703-2.493-5.027-6.213-9.97-11.155a17277.212 17277.212 0 0 1-16.574-16.582c-4.953-4.958-8.287-8.664-10.001-11.117-5.448-7.802-8.422-16.673-8.921-26.614-.011-.21-.12-.314-.33-.314l-2.616-.008c-.3 0-.45.147-.45.442-.1 9.871 2.404 18.752 7.512 26.644 1.76 2.714 5.033 6.468 9.821 11.261 6.702 6.711 13.396 13.428 20.082 20.15zm16.08-58.1c-.494 12.422-5.449 23.967-14.16 32.836-2.704 2.754-5.428 5.51-8.172 8.269a.496.496 0 0 0 .002.7l.006.005 2.017 1.949c.205.2.407.2.607 0 5.038-4.963 11.026-10.443 14.692-15.684 5.758-8.236 8.569-17.59 8.435-28.061 0-.27-.138-.404-.412-.404l-2.595-.007c-.268 0-.409.132-.42.397zM63.008 9.427a3.343 3.343 0 1 0-6.687 0 3.344 3.344 0 1 0 6.687 0zm2.93 2.1c-2.541 5.869-10.322 6.334-12.558.007-.101-.284-.302-.427-.606-.427l-23.381-.008a.474.474 0 0 0-.451.63l3.014 8.861c.13.364.388.547.772.547h33.698a.631.631 0 0 0 .607-.382 42.611 42.611 0 0 0 3.141-9.273.336.336 0 0 0-.337-.413l-3.299.061a.668.668 0 0 0-.6.397zm-1.183 13.554c.26-.425.143-.637-.354-.637H34.715c-.395 0-.492.17-.292.51a45.612 45.612 0 0 0 7.287 9.273c.205.199.447.3.727.3h14.476c.244 0 .48-.1.66-.277a50.91 50.91 0 0 0 7.182-9.169zM49.934 41.843l3.598-3.583c.229-.23.182-.348-.143-.354l-7.408-.021a.262.262 0 0 0-.188.45l3.464 3.501c.227.225.452.227.677.007zM29.85 75.698c4.273-8.523 9.394-13.291 17.085-20.758a.441.441 0 0 0 .008-.629l-1.986-2.033c-.186-.189-.375-.191-.57-.006-6.697 6.36-10.891 10.594-12.579 12.699-7.232 9.01-10.783 19.342-10.653 30.989 0 .295.147.442.442.442l2.526.009c.275 0 .417-.14.428-.412a50.073 50.073 0 0 1 5.299-20.301zm15.841-14.754a.24.24 0 0 0 .172.414l7.572-.045a.24.24 0 0 0 .172-.406L49.8 57.122a.24.24 0 0 0-.34-.006l-.005.006-3.764 3.822zm-5.795 13.399c2.519-5.998 10.667-6.463 12.675-.076.086.271.271.406.556.406H64.56c.381 0 .474-.164.277-.488a49.198 49.198 0 0 0-7.309-9.334.92.92 0 0 0-.646-.27l-14.505.008a.925.925 0 0 0-.652.27 47.116 47.116 0 0 0-7.287 9.281c-.21.355-.109.533.3.533h4.663c.24 0 .405-.111.495-.33zm9.716 1.978a3.344 3.344 0 0 0-6.688 0 3.344 3.344 0 0 0 6.688 0zm3.021 1.979c-2.586 6.268-10.375 6.389-12.707.068-.096-.26-.282-.391-.563-.391l-6.732.016c-.325 0-.54.152-.645.457l-3.044 8.943c-.14.41.008.614.442.614l40.602.009c.176 0 .242-.086.203-.256a42.13 42.13 0 0 0-3.164-9.394.614.614 0 0 0-.6-.384l-13.315-.006a.486.486 0 0 0-.477.324z"/></svg>