<svg xmlns="http://www.w3.org/2000/svg" width="99.213" height="99.213" xml:space="preserve"><path d="M86.092 76.717c10.818-14.312 11.71-33.57 3.546-48.602C77.396 5.58 49.59-2.48 27.168 10.085c-.245.14-.443.088-.593-.157L25.36 7.956c-.125-.205-.082-.367.128-.487C49.815-6.362 80.328 2.85 93.004 27.726c8.292 16.275 6.604 36.188-4.49 51.008-.15.195-.32.215-.51.06l-1.845-1.483a.438.438 0 0 1-.067-.594zM23.974 16.368c0 4.215-3.417 7.63-7.632 7.63a7.631 7.631 0 1 1 0-15.262 7.632 7.632 0 0 1 7.632 7.632zm-3.148-.022a4.5 4.5 0 1 0-8.998 0 4.5 4.5 0 0 0 8.998 0z"/><path d="M69.75 17.042a7.632 7.632 0 1 1-15.265 0 7.632 7.632 0 0 1 15.264 0zm-3.127.008a4.498 4.498 0 0 0-8.996 0 4.498 4.498 0 0 0 8.996 0zM20.443 65.659c.12.24.235.515.345.825.075.225.013.399-.187.524l-1.935 1.215c-.205.125-.367.085-.487-.12-8.366-14.146-6.117-31.944 5.24-43.79 6.862-7.161 15.631-10.9 26.307-11.214.35-.011.52.159.51.51l-.053 2.144c-.01.3-.162.452-.457.457-13.772.413-25.212 7.767-30.7 20.249-4.138 9.41-3.665 19.145 1.417 29.2zM37.776 83.937l.854-2.43c.095-.254.27-.34.524-.254 13.472 4.43 28.354-.105 36.795-11.223 10.652-14.042 8.966-33.488-4.19-45.273-.19-.17-.2-.353-.03-.548l1.597-1.83c.175-.193.357-.201.547-.021 7.577 7.077 11.623 15.546 12.138 25.407 1.356 26.028-23.854 44.358-48.107 36.427-.13-.04-.173-.125-.128-.255z"/><path d="M10.075 27.186c-20.713 38.15 16.358 80.396 56.991 64.503.28-.11.48-.03.6.239l.914 2.032c.115.255.043.435-.217.539C33.615 108.36-2.429 81.275 1.26 44.196c.635-6.348 2.671-12.543 6.11-18.585.14-.245.331-.3.576-.165l1.935 1.072c.285.16.35.383.195.668zM34.275 30.739c11.635-8.876 28.022-6.68 35.91 5.99.154.244.11.447-.136.606l-1.934 1.252c-.195.13-.357.098-.487-.097-7.024-10.878-21.089-13.404-31.307-5.331-.226.176-.428.155-.607-.06l-1.5-1.762c-.189-.223-.17-.423.061-.598z"/><path d="m42.436 32.434 2.388-.586a.315.315 0 0 1 .381.23l.587 2.388a.316.316 0 0 1-.23.38l-2.389.588a.316.316 0 0 1-.38-.23l-.588-2.39a.315.315 0 0 1 .231-.38zM35.714 42.217a7.64 7.64 0 0 1-7.64 7.639 7.64 7.64 0 0 1 0-15.279 7.64 7.64 0 0 1 7.64 7.64zm-3.126.008a4.499 4.499 0 1 0-8.997.001 4.499 4.499 0 0 0 8.997-.001zM87.13 36.468l2.391-.745a.277.277 0 0 1 .347.183l.768 2.462a.279.279 0 0 1-.183.348l-2.39.744a.277.277 0 0 1-.349-.182l-.767-2.463a.278.278 0 0 1 .183-.347zM61.787 49.63c0 6.733-5.457 12.19-12.189 12.19S37.41 56.363 37.41 49.63s5.457-12.188 12.19-12.188 12.188 5.457 12.188 12.189zm-3.126 0a9.041 9.041 0 1 0-18.082.001 9.041 9.041 0 0 0 18.082 0zM80.005 49.639a7.632 7.632 0 1 1-15.264 0 7.632 7.632 0 0 1 15.264 0zm-3.14-.008a4.498 4.498 0 1 0-8.997 0 4.498 4.498 0 0 0 8.996 0z"/><path d="M28.951 54.384c2.257 10.278 11.584 16.658 21.344 16.344 7.324-.232 13.352-3.831 17.333-9.858.154-.235.352-.275.592-.12l1.845 1.19a.491.491 0 0 1 .15.68l-.009.012c-12.332 18.172-38.068 13.629-44.298-7.19-.155-.515.03-.826.555-.937l2.031-.42c.25-.051.403.049.457.299zM8.791 60.565l2.411-.728a.24.24 0 0 1 .3.16l.767 2.54a.24.24 0 0 1-.16.3l-2.412.729a.24.24 0 0 1-.299-.161l-.767-2.54a.24.24 0 0 1 .16-.3zM35.272 76.747a7.632 7.632 0 1 1-15.264 0 7.632 7.632 0 0 1 15.264 0zm-3.142.03a4.498 4.498 0 1 0-8.996.001 4.498 4.498 0 0 0 8.996 0zM53.581 76.549l2.475-.608a.232.232 0 0 1 .281.17l.633 2.578a.232.232 0 0 1-.17.28l-2.476.608a.232.232 0 0 1-.28-.17l-.634-2.577a.232.232 0 0 1 .171-.281zM86.22 86.71a7.64 7.64 0 0 1-7.64 7.64 7.64 7.64 0 0 1-7.639-7.64 7.639 7.639 0 0 1 7.64-7.64 7.64 7.64 0 0 1 7.64 7.64zm-3.164-.007a4.498 4.498 0 1 0-8.996 0 4.498 4.498 0 0 0 8.996 0z"/></svg>