<svg xmlns="http://www.w3.org/2000/svg" width="99.213" height="99.213" xml:space="preserve"><path d="M32.589 41.374c7.797-14.184 26.981-14.25 34.126.435.104.22.279.338.524.353l11.793.81c.244.015.367-.1.367-.345-.045-5.982 1.334-7.227 7.332-7.189.279.005.422-.135.427-.42.03-9.08.045-18.152.045-27.213 0-7.032 9.409-7.107 9.424.225.03 11.69.03 23.38 0 35.07 0 .265.085.5.255.704.879 1.07 1.312 1.93 1.297 2.58-.053 2.556.675 6.963-1.252 8.807a.894.894 0 0 0-.277.652c-.016 11.975-.013 23.947.007 35.918.016 6.373-9.49 6.598-9.49-.188.01-9.12.013-18.24.007-27.356 0-.295-.147-.447-.442-.457-1.521-.067-3.193.194-4.482-.458-1.925-.969-2.932-3.036-3.021-6.199-.021-.615-.337-.899-.952-.854l-10.848.816a.816.816 0 0 0-.667.397l-2.587 4.101c-.1.165-.082.317.053.458l1.792 1.813c.189.2.192.4.007.601l-1.574 1.695a.435.435 0 0 1-.614.016l-.022-.023-1.597-1.732c-.221-.24-.468-.275-.742-.105l-4.514 2.752a.869.869 0 0 0-.404.57c-.458 2.137-.067 5.465-2.64 5.486-3.203.031-6.367.031-9.49 0a.988.988 0 0 1-.952-.8l-.915-4.71a.752.752 0 0 0-.367-.523l-4.58-2.775c-.21-.13-.405-.107-.585.067l-1.717 1.694c-.225.221-.447.221-.667 0l-1.515-1.544c-.229-.235-.229-.468 0-.697l1.754-1.77c.146-.145.163-.303.053-.473l-2.586-4.176a.653.653 0 0 0-.525-.322l-11.643-.877c-.265-.015-.395.107-.39.367.09 5.886-1.649 7.438-7.452 7.138-.265-.016-.397.112-.397.382-.029 8.587-.029 17.17 0 25.745.008 3.703-.929 7.211-5.263 6.836-3.523-.307-4.13-3.38-4.13-6.559.015-11.35.015-22.7 0-34.052a.878.878 0 0 0-.248-.622c-.63-.667-1.207-1.26-1.26-2.234a67.807 67.807 0 0 1-.021-6.926c.06-1.146.427-1.649 1.244-2.347a.81.81 0 0 0 .292-.622c.001-11.346-.001-22.688-.01-34.028 0-2.09.185-3.54.555-4.356 1.379-3.036 6.529-3.11 8.148-.164.455.83.68 2.151.675 3.966-.005 8.761-.003 17.52.008 26.275a.432.432 0 0 0 .412.436c1.327.06 2.804-.09 3.943.21 3.321.892 3.605 3.823 3.493 6.986a.347.347 0 0 0 .337.354h.03l2.34-.166a.405.405 0 0 0 .382-.404l.03-3.307c.005-.305.16-.457.465-.457h2.249c.314 0 .47.155.465.465l-.016 3.066c0 .244.123.36.368.345l2.323-.135c.275-.016.412-.16.412-.436v-7.579c0-.279.141-.42.42-.42l2.354.008c.274 0 .412.14.412.42v6.942c.001.32.078.34.234.06zM6.177 43.338h2.055a.6.6 0 0 0 .6-.6V8.043c0-1.333-.675-2.414-1.507-2.414h-.24c-.832 0-1.507 1.081-1.507 2.414v34.695a.6.6 0 0 0 .599.6zm84.714-.007h2.039a.6.6 0 0 0 .6-.6V7.87c0-1.242-.694-2.249-1.552-2.249h-.135c-.856 0-1.552 1.007-1.552 2.25v34.86a.6.6 0 0 0 .6.6zM40.565 55.887c-6.611-10.203 4.476-21.807 15.227-15.286.24.146.457.12.652-.074l2.729-2.744c.195-.19.183-.367-.037-.532-14.701-11.118-32.858 7.122-21.913 21.935.145.2.307.212.487.037l2.788-2.75c.18-.18.203-.376.067-.586zm-27.513-.532-.84.518a.619.619 0 0 0-.285.524v3.733c0 .28.141.42.42.42l2.917-.008a1.356 1.356 0 0 0 1.349-1.356l-.007-19.506c0-.546-.437-.992-.982-1.005l-3.261-.06c-.29-.005-.436.135-.436.42v3.823c0 .247.156.467.391.547.944.33 1.146.765 1.177 1.792.104 3.164.092 6.32-.037 9.468a.81.81 0 0 1-.406.69zm73.267.233a.967.967 0 0 1-.593-.877c-.07-3.084-.083-6.232-.038-9.446.016-1.01.398-1.66 1.147-1.956a.492.492 0 0 0 .337-.495v-3.733c0-.315-.154-.47-.464-.465l-2.932.045a1.298 1.298 0 0 0-1.282 1.297v19.35a1.2 1.2 0 0 0 1.178 1.198l3.11.067c.255.005.383-.12.383-.375l.022-3.793c0-.305-.141-.515-.42-.63l-.448-.187zM58.573 43.346c2.901 4.341 2.339 8.088.008 12.572-.115.22-.083.42.097.6l2.609 2.563c.335.33.632.298.892-.097 4.179-6.357 4.134-12.679-.135-18.967-.175-.26-.372-.282-.592-.067l-2.804 2.736c-.205.2-.23.42-.075.66zm-13.104-.48c-.16.064-.18.162-.06.292l1.813 1.927a.45.45 0 0 0 .781-.308l.007-2.519c0-.295-.135-.385-.404-.27l-2.137.878zm8.059.547a.421.421 0 0 0-.143-.683l-1.717-.712a.42.42 0 0 0-.585.39l-.008 2.444a.42.42 0 0 0 .72.3l1.733-1.739zm-27.446 4.813a.24.24 0 0 1 .24-.239l4.258.022a.24.24 0 0 0 .24-.202l.345-2.204a.24.24 0 0 0-.255-.277l-10.886.75a.24.24 0 0 0-.225.24v6.55a.24.24 0 0 0 .225.24l10.863.742a.24.24 0 0 0 .255-.27l-.292-2.189a.242.242 0 0 0-.24-.21l-4.281.008a.24.24 0 0 1-.239-.24l-.008-2.72zm47.005 2.721a.24.24 0 0 1-.24.24l-4.362-.008a.24.24 0 0 0-.24.21l-.27 2.19a.24.24 0 0 0 .255.27l10.945-.743a.24.24 0 0 0 .225-.24v-6.543a.24.24 0 0 0-.225-.24l-10.961-.765a.24.24 0 0 0-.255.27l.293 2.227a.24.24 0 0 0 .239.21l4.379-.037a.24.24 0 0 1 .247.232v.015l-.03 2.712zm-29.658-5.405a.464.464 0 0 0-.757.15l-.69 1.664a.465.465 0 0 0 .428.644l2.324-.015a.465.465 0 0 0 .329-.787l-1.634-1.656zm13.262 2.475a.458.458 0 0 0 .435-.63l-.675-1.635a.456.456 0 0 0-.749-.149l-1.567 1.604a.457.457 0 0 0 .323.772l2.233.038zm-46.347-1.239a.278.278 0 0 0-.277-.278l-5.728-.01a.278.278 0 0 0-.277.277l-.01 5.636c0 .153.123.278.276.278l5.728.01a.276.276 0 0 0 .278-.276l.01-5.637zm84.708-.006a.277.277 0 0 0-.277-.277h-5.728a.277.277 0 0 0-.277.277v5.637c0 .153.124.277.277.277h5.728a.277.277 0 0 0 .277-.277v-5.637zm-43.706 2.826a1.784 1.784 0 0 0-3.569 0 1.784 1.784 0 1 0 3.569 0zm-8.944 1.581a.458.458 0 0 0-.427.638l.704 1.642a.46.46 0 0 0 .75.134l1.56-1.634a.457.457 0 0 0-.331-.772l-2.256-.008zm13.27 2.384a.45.45 0 0 0 .735-.135l.697-1.61a.45.45 0 0 0-.412-.624l-2.257-.022a.45.45 0 0 0-.322.764l1.559 1.627zm-9.994 2.114a.45.45 0 0 0 .112.712l1.537.803a.45.45 0 0 0 .659-.397l.022-2.377a.45.45 0 0 0-.771-.322l-1.559 1.581zm5.398 1.11a.42.42 0 0 0 .585.391l1.762-.735a.42.42 0 0 0 .127-.69l-1.731-1.672a.421.421 0 0 0-.712.3l-.031 2.406zM8.135 55.82H6.26a.668.668 0 0 0-.668.667v35.05c0 1.108.702 2.007 1.567 2.007h.075c.865 0 1.566-.898 1.566-2.008V56.487a.664.664 0 0 0-.665-.667zm84.713-.008h-1.904a.698.698 0 0 0-.697.697v34.6c0 1.35.694 2.442 1.552 2.442h.194c.857 0 1.553-1.094 1.553-2.443V56.51a.698.698 0 0 0-.698-.697zm-37.042 2.775c-3.98 2.676-8.636 2.58-12.534 0-.2-.13-.385-.11-.555.06l-2.819 2.826a.392.392 0 0 0 .06.6c6.373 4.255 12.75 4.274 19.133.061a.473.473 0 0 0 .074-.727l-2.729-2.759c-.189-.196-.4-.217-.63-.06zm-2.719 9.902a.195.195 0 0 0-.195-.195l-6.687-.012a.195.195 0 0 0-.195.195v1.334c0 .107.087.195.194.195l6.688.012a.197.197 0 0 0 .195-.195V68.49z"/></svg>