<svg xmlns="http://www.w3.org/2000/svg" width="99.213" height="99.213" xml:space="preserve"><g fill="#1E1E1E"><path d="m35.468 93.845.007 2.316c0 .289-.143.432-.427.427l-2.212-.022c-.305-.004-.457-.156-.457-.457l-.016-2.219c0-.271-.132-.396-.396-.383-2.35.141-3.254-.939-2.714-3.238.149-.629-.085-.85-.705-.66l-2.271.697a1.03 1.03 0 0 1-.832-.098l-12.857-7.736c-.305-.185-.512-.107-.622.232-.39 1.193-1.244 1.605-2.563 1.236a.406.406 0 0 0-.518.383l-.053 2.48a.416.416 0 0 1-.412.412l-2.227.008c-.345 0-.518-.172-.518-.518l-.022-2.361a.415.415 0 0 0-.502-.396c-1.699.359-2.559-.277-2.579-1.911-.045-4.339-.04-8.673.016-13 .029-2.069.651-3.351 2.668-3.884a.552.552 0 0 0 .413-.524v-2.106a.424.424 0 0 0-.42-.426l-2.22-.017c-.305-.005-.457-.16-.457-.466l-.008-2.232c0-.32.16-.479.48-.473l2.188.021c.29.006.436-.138.436-.428V35.767c0-.25.125-.375.375-.375h2.346c.311.005.465.162.465.473v22.633c0 .278.141.42.42.42l2.234.007c.29 0 .435.146.435.436l.008 2.302c.005.3-.143.446-.442.442L9.29 62.08c-.285 0-.431.144-.436.428v1.949a.745.745 0 0 0 .36.675c1.364.898 2.414 1.643 4.16 1.648 4.809.035 9.611.025 14.409-.029.231 0 .45-.107.592-.293 1.545-2.01 6.74-1.268 8.427-1.268.285 0 .438-.143.457-.428.915-13.519 1.819-27.03 2.714-40.535.135-2.019.407-4.053.817-6.102 1.042-5.121 1.492-13.854 8.082-15.421 2.459-.593 5.413 2.204 6.566 4.056.631 1.009 1.192 2.716 1.688 5.12.81 3.898 1.709 7.661 1.994 11.657.97 13.744 1.881 27.496 2.735 41.255.016.261.152.39.412.39 2.789.008 6.598-.742 8.756 1.336a.993.993 0 0 0 .69.276l15.66-.008a.665.665 0 0 0 .547-.285 3.196 3.196 0 0 1 2.017-1.312c.295-.061.442-.242.442-.547v-2.123c0-.285-.144-.428-.427-.428h-2.348c-.274 0-.412-.14-.412-.419v-2.347c0-.28.141-.42.42-.42l2.422.029c.23.006.345-.106.345-.338V35.767c0-.25.125-.375.375-.375h2.294a.42.42 0 0 1 .42.42v22.632c0 .311.155.466.465.466l2.295.015c.289.006.435.15.435.436v2.302c0 .3-.149.45-.449.45l-2.264-.023c-.314-.005-.475.152-.479.472l-.022 2.101c0 .271.13.438.39.502 1.777.45 2.752 1.522 2.781 3.464.07 4.854.07 9.706 0 14.559a.54.54 0 0 1-.436.524l-2.42.474a.359.359 0 0 0-.285.353l-.017 2.271c0 .274-.137.412-.412.412l-2.204-.008c-.31 0-.465-.154-.465-.465v-2.43a.35.35 0 0 0-.436-.344c-1.389.34-2.33-.106-2.825-1.342-.101-.244-.265-.3-.495-.165l-12.939 7.759a.953.953 0 0 1-.771.092l-2.602-.819c-.239-.08-.358.008-.358.263v2.219c0 .279-.088.527-.263.742-.58.721-1.359.965-2.34.734-.334-.075-.5.061-.494.404l.029 2.271a.44.44 0 0 1-.435.449h-.009l-2.301.008c-.32 0-.479-.156-.474-.473l.022-2.264a.397.397 0 0 0-.489-.389c-.959.22-1.741-.013-2.346-.696a1.105 1.105 0 0 1-.271-.729l-.016-6.747a.257.257 0 0 0-.268-.259.278.278 0 0 0-.189.078L55.25 90.03a.915.915 0 0 1-.66.277H44.546c-.2 0-.37-.07-.51-.209l-5.045-5.022c-.29-.285-.436-.226-.436.18v6.919a.918.918 0 0 1-.352.742c-.65.545-1.412.73-2.287.557-.303-.065-.453.06-.448.371zm16.763-78.38a11.585 11.585 0 0 1 1.304 3.329c.173.817.75 1.289 1.553.922.233-.11.329-.292.284-.547-.824-4.416-.907-10.833-5.428-13.262a.646.646 0 0 0-.614-.021c-4.349 1.971-4.671 8.186-5.525 13.427-.045.265.067.404.338.419l.727.038c.3.015.497-.12.593-.405l1.229-3.771a.712.712 0 0 1 .667-.495l4.138-.045a.785.785 0 0 1 .734.411zm-5.12 7.309-3.576.09c-.22.005-.338.118-.353.338-.89 13.544-1.794 27.086-2.714 40.625-.397 5.893-.33 11.656-.314 17.527a.987.987 0 0 0 .3.711l3.118 3.127c.215.209.357.17.428-.119.352-1.479.457-4.288 1.446-5.383a.984.984 0 0 1 .765-.346l6.636-.008a1.431 1.431 0 0 1 1.416 1.17l.854 4.527c.069.38.241.436.518.164l3.118-3.11a.898.898 0 0 0 .264-.637c-.045-5.548.111-11.147-.256-16.636-.93-13.834-1.847-27.673-2.751-41.518-.021-.29-.175-.438-.465-.442l-3.485-.067a.7.7 0 0 1-.652-.48L50.2 18.726a.678.678 0 0 0-.852-.428.664.664 0 0 0-.423.428L47.77 22.28c-.104.32-.325.485-.659.494zM8.856 68.929a.523.523 0 0 0-.523-.525l-2.13-.004a.522.522 0 0 0-.525.522l-.004 2.024c0 .289.234.525.524.525l2.129.004c.29 0 .525-.234.525-.523l.004-2.023zm28.211-.224a.321.321 0 0 0-.322-.322l-5.637-.01a.321.321 0 0 0-.323.321l-.005 2.443c0 .178.144.322.322.322l5.638.01a.32.32 0 0 0 .322-.32l.005-2.444zm31.293-.106a.209.209 0 0 0-.209-.211l-5.758-.021a.21.21 0 0 0-.209.209l-.011 2.685a.21.21 0 0 0 .209.211l5.759.021a.209.209 0 0 0 .209-.209l.01-2.685zm25.118.072a.278.278 0 0 0-.275-.279l-2.533-.013a.278.278 0 0 0-.279.274l-.013 2.535a.276.276 0 0 0 .274.277l2.535.014a.276.276 0 0 0 .277-.275l.014-2.533zm-74.48 9.889-1.664-1.658a.402.402 0 0 1 .074-.629c2.164-1.364 2.932-3.342 2.302-5.931-.075-.31-.272-.465-.592-.465h-6.643c-.335 0-.502.167-.502.502l-.022 7.662c0 .278.12.492.359.638l13.532 8.096a.876.876 0 0 0 .734.099l1.994-.601c.3-.09.492-.285.577-.584.315-1.125-.064-1.842-1.14-2.151a.566.566 0 0 1-.404-.548l-.016-12.736c0-.25-.122-.375-.367-.375h-3.936c-.25 0-.375.125-.375.375v4.596c0 .319-.112.592-.337.816l-2.901 2.895c-.224.222-.449.222-.673-.001zm60.454-.084-2.909-2.9a1.004 1.004 0 0 1-.313-.749l.006-4.521c0-.285-.139-.429-.42-.429h-3.838c-.289 0-.435.146-.435.435.015 4.09.008 8.186-.022 12.287 0 .295-.058.553-.172.772-.199.385-.393.585-.578.601-.654.043-1.197.6-1.213 1.243-.012.55.368 1 .914 1.08a9.56 9.56 0 0 1 2.016.563.89.89 0 0 0 .826-.067l13.539-8.112a.654.654 0 0 0 .344-.6v-7.826c0-.25-.125-.375-.375-.375h-6.739c-.289 0-.472.141-.547.42-.716 2.6.015 4.57 2.188 5.915a.464.464 0 0 1 .074.736l-1.634 1.544c-.24.223-.477.218-.712-.017zM8.826 75.108a.458.458 0 0 0-.46-.455l-2.265.013a.456.456 0 0 0-.454.46l.027 5.354a.457.457 0 0 0 .46.453l2.264-.012a.456.456 0 0 0 .455-.459l-.027-5.354zm28.244-.179a.27.27 0 0 0-.27-.271l-5.742-.01a.27.27 0 0 0-.271.27l-.01 5.742a.27.27 0 0 0 .269.271l5.743.01c.148 0 .27-.121.271-.271l.01-5.741zm31.283-.028a.255.255 0 0 0-.256-.254l-5.683.01a.254.254 0 0 0-.255.256l.011 5.771c0 .142.114.254.255.254l5.684-.01a.253.253 0 0 0 .254-.255l-.01-5.772zm25.119-.015a.232.232 0 0 0-.232-.232h-2.624a.232.232 0 0 0-.232.232v5.816c0 .129.104.232.232.232h2.624a.232.232 0 0 0 .232-.232v-5.816zm-45.439 7.549a.261.261 0 0 0-.255.203l-.975 4.266a.262.262 0 0 0 .195.314c.02.004.039.008.06.008l5.031-.016a.263.263 0 0 0 .26-.266c0-.018-.002-.033-.004-.051l-.841-4.25a.262.262 0 0 0-.263-.211h-3.208v.003zm-12.56 1.845a.256.256 0 0 0-.255-.256l-2.579-.004a.254.254 0 0 0-.255.254l-.01 5.772a.256.256 0 0 0 .254.257l2.579.004a.254.254 0 0 0 .255-.254l.011-5.773zm31.378-.009a.246.246 0 0 0-.248-.246h-2.684a.246.246 0 0 0-.248.246v5.789c0 .137.111.246.248.246h2.684a.246.246 0 0 0 .248-.246v-5.789z"/><path d="m48.305 8.775 2.564.005c.149 0 .271.121.271.271l-.005 2.549a.272.272 0 0 1-.271.27l-2.565-.005a.271.271 0 0 1-.27-.271l.005-2.549a.272.272 0 0 1 .271-.27zM48.25 26.021h2.64c.129 0 .232.104.232.232v12.085a.232.232 0 0 1-.232.232h-2.64a.232.232 0 0 1-.232-.232V26.253a.232.232 0 0 1 .232-.232zM46.713 63.715a1.956 1.956 0 0 1-1.949-1.957l.022-14.858c.005-2.886 2.096-5.222 4.671-5.218h.247c2.572.008 4.652 2.35 4.648 5.232l-.022 14.858c0 1.08-.876 1.957-1.956 1.957h-.008l-5.653-.014zm1.724-9.439h2.28c.24 0 .435-.195.435-.436v-7.43c0-.832-.613-1.507-1.373-1.507h-.404c-.758 0-1.372.675-1.372 1.507v7.43a.434.434 0 0 0 .434.436zm2.684 3.352a.21.21 0 0 0-.209-.211l-2.669-.016a.213.213 0 0 0-.211.209l-.014 2.67a.21.21 0 0 0 .209.211l2.668.015a.211.211 0 0 0 .211-.209l.015-2.669zM54.285 71.474a4.693 4.693 0 0 1-4.693 4.693h-.001a4.693 4.693 0 0 1 0-9.386 4.692 4.692 0 0 1 4.694 4.693zm-3.171.022a1.55 1.55 0 1 0-3.104 0 1.552 1.552 0 1 0 3.104 0z"/></g></svg>