<svg xmlns="http://www.w3.org/2000/svg" width="99.213" height="99.213" xml:space="preserve"><path d="M51.152 10.112V2.863c0-.183.15-.33.337-.33h.008l2.437.045c.27.01.405.147.405.412v7.332c0 .29.135.482.404.577 10.29 3.594 15.387 10.775 15.286 21.546-.022 2.594-1.32 4.363-2.451 6.612-.13.255-.08.465.149.63 15.84 11.62 17.745 33.503 4.243 47.483-19.401 20.092-53.503 6.201-53.654-21.672-.055-10.355 4.326-19.012 13.142-25.969a.465.465 0 0 0 .128-.585c-1.103-2.069-2.392-3.951-2.414-6.38-.104-10.886 5-18.107 15.316-21.666.265-.09.396-.277.397-.563l-.008-4.272c0-.275.14-.415.42-.42h2.437c.225-.005.337.104.337.33l-.015 4.025c0 .285.14.43.42.435l2.33.022c.232.002.346-.112.346-.343zm-.652 6.732c7.685 1.319 6.845 11.83-.838 12.332-2.93.195-4.913-1.262-5.953-4.37-.07-.216-.217-.323-.442-.323l-9.371-.007a.484.484 0 0 0-.494.345 19.51 19.51 0 0 0-1.087 7.122c.008.23.2.412.435.412h33.772c.285 0 .426-.143.42-.428-.125-7.116-2.761-12.302-7.91-15.556-8.162-5.157-17.803-3.156-23.643 4.551a.294.294 0 0 0 .054.408c.05.037.109.057.17.057h7.318c.314 0 .54-.145.675-.435 1.478-3.273 3.776-4.643 6.894-4.108zm2.234 6.087a3.141 3.141 0 0 0-6.282 0 3.14 3.14 0 1 0 6.282 0zm-18.93 12.513a.307.307 0 0 0-.277.443l1.223 2.571a.307.307 0 0 0 .277.172h29.08a.307.307 0 0 0 .277-.165l1.342-2.571a.306.306 0 0 0-.277-.449H33.805zM24.84 52.619c5.78.195 10.285-4.873 10.578-10.278a.79.79 0 0 0-.738-.83.765.765 0 0 0-.47.126c-4.112 2.684-7.321 6.199-9.625 10.548-.15.279-.065.424.255.434zm18.877-4.025c.76-1.824 1.127-3.976 1.102-6.455-.005-.279-.147-.42-.427-.42l-5.195-.007c-.26 0-.41.13-.45.39-1.214 8.94-6.367 13.571-15.458 13.892-.3.01-.485.162-.555.457l-1.215 5.135a.412.412 0 0 0 .383.51c10.565.538 17.837-3.962 21.815-13.502zm4.58-6.875a.247.247 0 0 0-.247.24l-.112 2.608a.247.247 0 0 0 .202.248l10.008 1.986a.247.247 0 0 0 .277-.157l1.746-4.581a.246.246 0 0 0-.233-.337l-11.641-.007zm29.223 24.874c-9.311-2.766-13.24-12.819-8.291-21.178.149-.25.112-.465-.112-.645l-3.87-3.066a.818.818 0 0 0-1.15.14c-.015.018-.027.036-.04.055-7.918 12.047-1.163 27.026 12.33 30.924.286.084.456-.02.51-.314l.983-5.33c.055-.307-.065-.501-.36-.586zm-40.13 6.988c7.077-1.627 13.808-.293 19.648 3.883a.49.49 0 0 0 .646-.068l6.552-7.475c.18-.205.178-.406-.008-.607-4.938-5.326-7.104-11.652-6.5-18.974.02-.26-.097-.417-.352-.472l-9.708-1.957c-.28-.055-.46.053-.54.322-2.18 6.982-6.567 12-13.165 15.053-.265.121-.35.32-.255.6l3.194 9.416c.08.24.242.334.487.277v.002zM71.4 47.933c-2.961 5.803-.3 13.06 5.923 15.241.31.109.449 0 .419-.33-.544-5.563-2.506-10.548-5.885-14.956a.27.27 0 0 0-.457.045zM33.948 74.307l-3.216-9.469c-.085-.256-.258-.35-.518-.285a23.762 23.762 0 0 1-8.486.525c-.27-.031-.402.088-.397.352.085 5.299 1.502 10.191 4.25 14.68a.351.351 0 0 0 .555.058 22.777 22.777 0 0 1 7.557-5.285c.26-.113.345-.306.255-.576zm41.374 1.454c-3-.959-5.128-1.783-8.082-3.846-.24-.164-.454-.139-.645.076l-6.612 7.512c-.15.17-.145.338.016.502a25.206 25.206 0 0 1 5.24 8.291.333.333 0 0 0 .502.151c4.403-3.129 7.679-7.172 9.828-12.129.12-.282.037-.466-.247-.557zM32.462 87.21c7.655-8.195 20.535-5.773 24.118 5.016.115.344.343.449.683.314l4.888-1.936c.325-.125.43-.352.314-.682-5.412-15.137-23.09-18.291-34.537-7.271-.285.279-.285.561 0 .84l3.823 3.732c.245.241.483.237.712-.013zm2.7 2.375c5.886 3.09 11.568 4.529 18 3.705a.348.348 0 0 0 .285-.451c-2.743-8.043-12.58-9.791-18.374-3.83a.367.367 0 0 0 .09.576z"/><path d="m59.303 26.068 2.549.014a.27.27 0 0 1 .269.271l-.014 2.55a.27.27 0 0 1-.271.268l-2.55-.013a.271.271 0 0 1-.268-.271l.014-2.549c0-.151.12-.271.27-.27zM25.267 40.834c-7.984 7.85-11.44 19.034-9.754 30.062.04.26-.07.412-.33.459l-2.188.336c-.34.055-.535-.09-.585-.434-1.7-12.666 1.812-23.528 10.533-32.589a.615.615 0 0 1 .869-.016l.008.008 1.446 1.454c.24.24.24.48 0 .72zM84.054 60.692l2.688-.254a.194.194 0 0 1 .212.176l.265 2.791a.197.197 0 0 1-.176.213l-2.688.254a.194.194 0 0 1-.212-.176l-.265-2.793a.195.195 0 0 1 .176-.211zM70.899 92.427c7.887-6.252 12.475-15.24 13.187-25.271.02-.26.162-.385.428-.375l2.286.121c.3.014.438.172.412.471-.864 11.256-5.638 20.416-14.318 27.484a.462.462 0 0 1-.648-.068l-.012-.014-1.395-1.814c-.15-.202-.13-.38.06-.534z"/></svg>